<?xml version="1.0" encoding="iso-8859-1"?>
<!-- Generator: Adobe Illustrator 16.0.0, SVG Export Plug-In . SVG Version: 6.00 Build 0)  -->
<!DOCTYPE svg PUBLIC "-//W3C//DTD SVG 1.1//EN" "http://www.w3.org/Graphics/SVG/1.1/DTD/svg11.dtd">
<svg version="1.1" id="&#x421;&#x43B;&#x43E;&#x439;_1"
	 xmlns="http://www.w3.org/2000/svg" xmlns:xlink="http://www.w3.org/1999/xlink" x="0px" y="0px" width="10px" height="10px"
	 viewBox="0 0 10 10" style="enable-background:new 0 0 10 10;" xml:space="preserve">
<path style="fill-rule:evenodd;clip-rule:evenodd;fill:#D24A45;" d="M9.973,3.883l0.012,0.002l-1.25,5.625L8.723,9.508
	C8.661,9.788,8.423,10,8.125,10h-6.25c-0.298,0-0.536-0.212-0.598-0.492L1.265,9.511l-1.25-5.625l0.012-0.002
	C0.017,3.839,0,3.797,0,3.75c0-0.346,0.28-0.625,0.625-0.625h1.25C1.875,1.399,3.274,0,5,0c1.726,0,3.125,1.399,3.125,3.125h1.25
	C9.72,3.125,10,3.405,10,3.75C10,3.797,9.983,3.839,9.973,3.883z M5,1.25c-1.036,0-1.875,0.84-1.875,1.875h3.75
	C6.875,2.09,6.036,1.25,5,1.25z M7.5,5.625c-0.345,0-0.625-0.28-0.625-0.625V4.375h-3.75V5c0,0.345-0.28,0.625-0.625,0.625
	S1.875,5.345,1.875,5V4.375H1.404L2.376,8.75h5.247l0.972-4.375H8.125V5C8.125,5.345,7.845,5.625,7.5,5.625z"/>
</svg>
