<?xml version="1.0" encoding="iso-8859-1"?>
<!-- Generator: Adobe Illustrator 16.0.0, SVG Export Plug-In . SVG Version: 6.00 Build 0)  -->
<!DOCTYPE svg PUBLIC "-//W3C//DTD SVG 1.1//EN" "http://www.w3.org/Graphics/SVG/1.1/DTD/svg11.dtd">
<svg version="1.1" id="&#x421;&#x43B;&#x43E;&#x439;_1"
	 xmlns="http://www.w3.org/2000/svg" xmlns:xlink="http://www.w3.org/1999/xlink" x="0px" y="0px" width="9.493px"
	 height="10.507px" viewBox="0 0 9.493 10.507" style="enable-background:new 0 0 9.493 10.507;" xml:space="preserve">
<path style="fill-rule:evenodd;clip-rule:evenodd;" d="M9.493,5.658c0,1.339-1.063,2.424-2.374,2.424
	c-0.777,0-1.457-0.387-1.887-0.979L5.221,7.112L4.747,6.466L4.272,7.112L4.265,7.107C3.832,7.696,3.149,8.082,2.373,8.082
	C1.063,8.082,0,6.997,0,5.658c0-0.546,0.183-1.044,0.481-1.45L0.475,4.203c0,0,3.481-4.203,4.272-4.203s4.271,4.203,4.271,4.203
	L9.012,4.208C9.31,4.613,9.493,5.112,9.493,5.658z M3.956,8.891V8.082c0-0.446,0.354-0.808,0.791-0.808s0.791,0.362,0.791,0.808
	v0.809c0.437,0,0.791,0.362,0.791,0.809c0,0.446-0.354,0.808-0.791,0.808H3.956c-0.437,0-0.791-0.362-0.791-0.808
	C3.165,9.252,3.519,8.891,3.956,8.891z"/>
</svg>
