<?xml version="1.0" encoding="iso-8859-1"?>
<!-- Generator: Adobe Illustrator 16.0.0, SVG Export Plug-In . SVG Version: 6.00 Build 0)  -->
<!DOCTYPE svg PUBLIC "-//W3C//DTD SVG 1.1//EN" "http://www.w3.org/Graphics/SVG/1.1/DTD/svg11.dtd">
<svg version="1.1" id="&#x421;&#x43B;&#x43E;&#x439;_1"
	 xmlns="http://www.w3.org/2000/svg" xmlns:xlink="http://www.w3.org/1999/xlink" x="0px" y="0px" width="11.2px" height="11.2px"
	 viewBox="0 0 11.2 11.2" style="enable-background:new 0 0 11.2 11.2;" xml:space="preserve">
<path style="fill-rule:evenodd;clip-rule:evenodd;" d="M9.8,9.1H7.99l-1.895,1.895l0,0C5.968,11.122,5.793,11.2,5.6,11.2
	s-0.369-0.078-0.495-0.205l0,0L3.21,9.1H1.4C0.627,9.1,0,8.473,0,7.7v-6.3C0,0.627,0.627,0,1.4,0h8.4c0.773,0,1.4,0.627,1.4,1.399
	v6.3C11.2,8.473,10.573,9.1,9.8,9.1z M9.8,2.1c0-0.387-0.313-0.7-0.7-0.7h-7c-0.387,0-0.7,0.313-0.7,0.7V7
	c0,0.386,0.313,0.7,0.7,0.7h0.7h0.7c0.193,0,0.368,0.079,0.495,0.205l0,0L5.6,9.51l1.605-1.605l0,0C7.332,7.778,7.506,7.7,7.7,7.7
	h0.7h0.7c0.387,0,0.7-0.313,0.7-0.7V2.1z M7.7,6.3H3.5c-0.387,0-0.7-0.313-0.7-0.7c0-0.386,0.313-0.7,0.7-0.7h4.2
	c0.386,0,0.7,0.314,0.7,0.7C8.4,5.986,8.086,6.3,7.7,6.3z M7.7,4.2H3.5c-0.387,0-0.7-0.313-0.7-0.7c0-0.387,0.313-0.7,0.7-0.7h4.2
	c0.386,0,0.7,0.313,0.7,0.7C8.4,3.886,8.086,4.2,7.7,4.2z"/>
</svg>
